<?xml version="1.0" standalone="no"?>
<!DOCTYPE svg PUBLIC "-//W3C//DTD SVG 1.1//EN" "http://www.w3.org/Graphics/SVG/1.1/DTD/svg11.dtd" >
<svg xmlns="http://www.w3.org/2000/svg">
<metadata></metadata>
<defs>
<font id="arrow_7regular" horiz-adv-x="1800" >
<font-face units-per-em="2048" ascent="1638" descent="-410" />
<missing-glyph horiz-adv-x="1355" />
<glyph horiz-adv-x="2048" />
<glyph horiz-adv-x="2048" />
<glyph unicode="&#xd;" horiz-adv-x="2048" />
<glyph unicode=" "  horiz-adv-x="1355" />
<glyph unicode="&#x09;" horiz-adv-x="1355" />
<glyph unicode="&#xa0;" horiz-adv-x="1355" />
<glyph unicode="!" horiz-adv-x="1500" d="M0 475q0 31 22 53t53 22t53 -22t22 -53t-22 -53t-53 -22t-53 22t-22 53zM200 675q0 31 22 53t53 22t53 -22t22 -53t-22 -53t-53 -22t-53 22t-22 53zM400 875q0 31 22 53t53 22t53 -22t22 -53t-22 -53t-53 -22t-53 22t-22 53zM600 75q0 31 22 53t53 22t53 -22t22 -53 t-22 -53t-53 -22t-53 22t-22 53zM600 275q0 31 22 53t53 22t53 -22t22 -53t-22 -53t-53 -22t-53 22t-22 53zM600 475q0 31 22 53t53 22t53 -22t22 -53t-22 -53t-53 -22t-53 22t-22 53zM600 675q0 31 22 53t53 22t53 -22t22 -53t-22 -53t-53 -22t-53 22t-22 53zM600 875 q0 31 22 53t53 22t53 -22t22 -53t-22 -53t-53 -22t-53 22t-22 53zM600 1075q0 31 22 53t53 22t53 -22t22 -53t-22 -53t-53 -22t-53 22t-22 53zM800 875q0 31 22 53t53 22t53 -22t22 -53t-22 -53t-53 -22t-53 22t-22 53zM1000 675q0 31 22 53t53 22t53 -22t22 -53t-22 -53 t-53 -22t-53 22t-22 53zM1200 475q0 31 22 53t53 22t53 -22t22 -53t-22 -53t-53 -22t-53 22t-22 53z" />
<glyph unicode="&#x22;" horiz-adv-x="2100" d="M0 950q0 394 278 672t672 278t672 -278t278 -672t-278 -672t-672 -278t-672 278t-278 672zM400 454q0 -100 100 -100h900q100 0 100 100t-100 100h-900q-100 0 -100 -100zM450 1130l447 -450q53 -50 100 -3l453 453q100 100 0 100h-300v200q0 100 -100 100h-200 q-100 0 -100 -100v-200h-300q-100 0 0 -100z" />
<glyph unicode="#" horiz-adv-x="1900" d="M0 200v1300q0 200 200 200h1300q200 0 200 -200v-1300q0 -200 -200 -200h-1300q-200 0 -200 200zM300 400q0 -100 100 -100h900q100 0 100 100t-100 100h-900q-100 0 -100 -100zM350 1076l447 -450q53 -50 100 -3l453 453q100 100 0 100h-300v200q0 100 -100 100h-200 q-100 0 -100 -100v-200h-300q-100 0 0 -100z" />
<glyph unicode="$" horiz-adv-x="1300" d="M50 300q-100 0 0 100l447 450q53 50 100 3l453 -453q100 -100 0 -100h-300v-200q0 -100 -100 -100h-200q-100 0 -100 100v200h-300z" />
<glyph unicode="%" horiz-adv-x="1100" d="M0 1200l456 600l444 -600h-300l-149 -1200l-151 1200h-300z" />
<glyph unicode="&#x26;" horiz-adv-x="1500" d="M0 0v200l400 600l200 -300l400 700h-300l600 300l-100 -644l-100 282l-500 -838l-200 300z" />
<glyph unicode="'" horiz-adv-x="1500" d="M0 650q0 223 131 392l22 -172l109 9q-62 -102 -62 -229q0 -186 132 -318q93 -93 212 -120l56 -112l-87 -87q-182 37 -322 178q-191 190 -191 459zM131 1042l56 64zM187 1106l4 4q190 190 459 190t460 -190q76 -77 122 -166l-132 17l-51 -101q-31 58 -81 108 q-132 132 -318 132t-318 -132l-3 -3l-129 -8zM262 879l67 86zM513 13l89 -11zM544 212l106 -12zM602 2l98 98l-50 100q186 0 318 132t132 318q0 56 -12 107l53 114l126 -10q33 -99 33 -211q0 -269 -190.5 -459.5t-459.5 -190.5q-25 0 -48 2zM1049 860l39 -103zM1232 944 l35 -83z" />
<glyph unicode="(" horiz-adv-x="1600" d="M0 700q0 290 205 495t495 205t495 -205q144 -124 178 -295l-173 -71q0 116 -100 204q-200 167 -401 167q-207 0 -353 -146t-146 -352q0 -207 146 -353t353 -146q206 0 352 146q22 22 41 46q-90 60 -192 105l500 200v-600q-69 92 -149 167q-26 -32 -56 -62 q-205 -205 -495 -205t-495 205t-205 495z" />
<glyph unicode=")" horiz-adv-x="1853" d="M0 461q114 13 219 45q-15 39 -26 80q-75 280 70 531q97 167 254 257l120 -166q-123 -64 -197 -192q-103 -178 -50 -378q8 -30 19 -58q97 48 187 114l-76 -533zM600 91l83 187q117 -75 265 -75q206 0 352 146q22 22 41 46q-90 60 -192 105l500 200v-600q-69 92 -149 167 q-26 -32 -56 -62q-205 -205 -495 -205q-194 0 -349 91zM600 1400l519 300q-45 -106 -70 -212q41 -7 82 -18q280 -75 425 -326q97 -167 96 -348l-204 -21q7 138 -67 267q-103 178 -303 232q-30 8 -60 12q-7 -108 5 -219z" />
<glyph unicode="*" horiz-adv-x="2000" d="M0 600q114 13 219 45q-15 39 -26 80q-75 280 70 531q124 214 347 300l90 -182q-168 -59 -260 -219q-103 -178 -50 -378q8 -30 19 -58q97 48 187 114l-76 -533zM567 150l112 169q136 -116 320 -116q206 0 352 146q22 22 41 46q-90 60 -192 105l500 200v-600 q-69 92 -149 167q-26 -32 -56 -62q-205 -205 -495 -205q-248 0 -433 150zM748 1500l519 300q-45 -106 -70 -213q41 -6 82 -17q280 -75 425 -326q124 -215 87 -451l-202 13q32 176 -60 335q-103 179 -303 232q-30 8 -60 13q-7 -108 5 -219z" />
<glyph unicode="+" horiz-adv-x="1600" d="M6 600q163 -230 294 -300q200 -100 399 -97q206 0 352 146q22 22 41 46q-90 60 -192 105l500 200v-600q-69 92 -149 167q-26 -32 -56 -62q-205 -205 -495 -205t-495 205q-169 169 -199 395zM6 800v600q69 -92 149 -167q26 32 56 62q205 205 495 205t495 -205 q169 -169 199 -395q-163 230 -294 300q-200 100 -399 97q-206 0 -352 -146q-22 -22 -41 -46q90 -60 192 -105z" />
<glyph unicode="," horiz-adv-x="1600" d="M0 700v600q69 -92 149 -167q26 32 56 62q205 205 495 205t495 -205q169 -169 199 -395h-204q-27 142 -136 251q-146 146 -353 146q-206 0 -352 -146q-22 -22 -41 -46q90 -60 192 -105zM6 600h203q28 -142 137 -251q146 -146 353 -146q206 0 352 146q22 22 41 46 q-90 60 -192 105l500 200v-600q-69 92 -149 167q-26 -32 -56 -62q-205 -205 -495 -205t-495 205q-169 169 -199 395z" />
<glyph unicode="-" horiz-adv-x="1600" d="M0 700q0 290 205 495t495 205t495 -205q130 -130 178 -295q-120 130 -273 200q-200 129 -401 100q-207 0 -353 -146t-146 -352q0 -207 146 -353t353 -146q206 0 352 146q22 22 41 46q-90 60 -192 105l500 200v-600q-69 92 -149 167q-26 -32 -56 -62q-205 -205 -495 -205 t-495 205t-205 495z" />
<glyph unicode="." horiz-adv-x="1600" d="M0 0v600l200 -200l200 200l200 -200l-200 -200l200 -200h-600zM0 800v600h600l-200 -200l200 -200l-200 -200l-200 200zM800 0l200 200l-200 200l200 200l200 -200l200 200v-600h-600zM800 1000l200 200l-200 200h600v-600l-200 200l-200 -200z" />
<glyph unicode="/" horiz-adv-x="800" d="M0 0v600h600l-200 -200l200 -200l-200 -200l-200 200z" />
<glyph unicode="0" horiz-adv-x="1400" d="M0 323l150 260l-87 50l255 84l49 -259l-87 50l-180 -348zM119 123l81 150h350v-200h-400zM237 822l200 346l59 2l89 -145l-175 -303zM537 1168l191 5l150 -260l87 50l-54 -262l-249 87l86 50zM600 178l200 172v-100l391 18l-91 -168h-300v-100zM868 601l173 100l200 -347 l-27 -51l-171 -5z" />
<glyph unicode="1" horiz-adv-x="1300" d="M0 500l300 520l-173 100l508 168l98 -518l-173 100l-360 -696zM238 100l135 253h727v-353h-800z" />
<glyph unicode="2" horiz-adv-x="1600" d="M0 0v1300h800l-100 300l700 -400l-700 -400l100 300h-600v-900h1200v-200h-1400z" />
<glyph unicode="3" horiz-adv-x="1600" d="M0 0v1100h800l-100 300l700 -400l-700 -400l100 300h-600v-900h-200z" />
<glyph unicode="4" horiz-adv-x="1400" d="M0 400l600 600l600 -600l-100 -100l-400 300v-600h-200v600l-400 -300z" />
<glyph unicode="5" horiz-adv-x="1200" d="M0 300v200l500 500l500 -500v-200l-400 300v-600h-200v600z" />
<glyph unicode="6" horiz-adv-x="2697" d="M0 500v300h200q300 -100 400 -300t300 -200t300 200t400 300h200v-300h-100q-200 0 -300 -200t-400 -300h-100h-100q-300 100 -400 300t-300 200h-100zM1800 200v900l700 -400z" />
<glyph unicode="7" d="M0 700l400 500l400 -500h-250l3 -700h-150h-150l-3 700h-250zM800 500h250v700h150h150v-700h250l-400 -500z" />
<glyph unicode="8" d="M0 400v200l800 800l800 -800v-200l-600 300l100 -700h-600l100 700z" />
<glyph unicode="9" d="M0 300v300l800 800l800 -800v-300l-647 600l-3 -900h-291v900z" />
<glyph unicode=":" horiz-adv-x="600" d="M0 0v1100l200 200l200 -200v-1100l-200 200z" />
<glyph unicode=";" horiz-adv-x="1700" d="M0 800l500 700l500 -700h-300v-200q0 -300 300 -300t300 300h200q0 -600 -500 -600q-700 0 -700 600v200h-300z" />
<glyph unicode="&#x3c;" horiz-adv-x="1500" d="M50 400q-100 0 0 100l503 600q100 100 200 0l497 -600q100 -100 0 -100h-250q-100 0 -100 -100v-100q0 -200 -250 -200t-250 200v100q0 100 -100 100h-250zM176 500h224q100 0 100 -100v-200q0 -100 150 -100t150 100v200q0 100 100 100h217l-401 500q-63 55 -136 0z" />
<glyph unicode="=" horiz-adv-x="1500" d="M50 400q-100 0 0 100l500 500q100 100 200 0l500 -500q100 -100 0 -100h-300q-100 0 -100 -100v-100q0 -200 -200 -200t-200 200v100q0 100 -100 100h-300zM176 500h274q100 0 100 -100v-200q0 -100 100 -100t100 100v200q0 100 100 100h267l-404 400q-63 55 -136 0z" />
<glyph unicode="&#x3e;" horiz-adv-x="1500" d="M50 400q-100 0 0 100l503 600q100 100 200 0l497 -600q100 -100 0 -100h-250q-100 0 -100 -100v-200q0 -100 -100 -100h-300q-100 0 -100 100v200q0 100 -100 100h-250z" />
<glyph unicode="?" horiz-adv-x="1500" d="M50 400q-100 0 0 100l500 500q100 100 200 0l500 -500q100 -100 0 -100h-300q-100 0 -100 -100v-200q0 -100 -100 -100h-200q-100 0 -100 100v200q0 100 -100 100h-300z" />
<glyph unicode="@" horiz-adv-x="2000" d="M0 704q0 41 29.5 70.5t70.5 29.5t70.5 -29.5t29.5 -70.5t-29.5 -70.5t-70.5 -29.5t-70.5 29.5t-29.5 70.5zM200 704q0 41 29.5 70.5t70.5 29.5t70.5 -29.5t29.5 -70.5t-29.5 -70.5t-70.5 -29.5t-70.5 29.5t-29.5 70.5zM200 904q0 41 29.5 70.5t70.5 29.5t70.5 -29.5 t29.5 -70.5t-29.5 -70.5t-70.5 -29.5t-70.5 29.5t-29.5 70.5zM400 704q0 41 29.5 70.5t70.5 29.5t70.5 -29.5t29.5 -70.5t-29.5 -70.5t-70.5 -29.5t-70.5 29.5t-29.5 70.5zM400 1104q0 41 29.5 70.5t70.5 29.5t70.5 -29.5t29.5 -70.5t-29.5 -70.5t-70.5 -29.5t-70.5 29.5 t-29.5 70.5zM600 102q0 42 29.5 72t70.5 30t70.5 -30t29.5 -72t-29.5 -72t-70.5 -30t-70.5 30t-29.5 72zM600 304q0 41 29.5 70.5t70.5 29.5t70.5 -29.5t29.5 -70.5t-29.5 -70.5t-70.5 -29.5t-70.5 29.5t-29.5 70.5zM600 504q0 41 29.5 70.5t70.5 29.5t70.5 -29.5 t29.5 -70.5t-29.5 -70.5t-70.5 -29.5t-70.5 29.5t-29.5 70.5zM600 704q0 41 29.5 70.5t70.5 29.5t70.5 -29.5t29.5 -70.5t-29.5 -70.5t-70.5 -29.5t-70.5 29.5t-29.5 70.5zM600 1304q0 41 29.5 70.5t70.5 29.5t70.5 -29.5t29.5 -70.5t-29.5 -70.5t-70.5 -29.5t-70.5 29.5 t-29.5 70.5zM800 104q0 41 29.5 70.5t70.5 29.5t70.5 -29.5t29.5 -70.5t-29.5 -70.5t-70.5 -29.5t-70.5 29.5t-29.5 70.5zM800 1504q0 41 29.5 70.5t70.5 29.5t70.5 -29.5t29.5 -70.5t-29.5 -70.5t-70.5 -29.5t-70.5 29.5t-29.5 70.5zM1000 104q0 41 29.5 70.5t70.5 29.5 t70.5 -29.5t29.5 -70.5t-29.5 -70.5t-70.5 -29.5t-70.5 29.5t-29.5 70.5zM1000 304q0 41 29.5 70.5t70.5 29.5t70.5 -29.5t29.5 -70.5t-29.5 -70.5t-70.5 -29.5t-70.5 29.5t-29.5 70.5zM1000 504q0 41 29.5 70.5t70.5 29.5t70.5 -29.5t29.5 -70.5t-29.5 -70.5t-70.5 -29.5 t-70.5 29.5t-29.5 70.5zM1000 704q0 41 29.5 70.5t70.5 29.5t70.5 -29.5t29.5 -70.5t-29.5 -70.5t-70.5 -29.5t-70.5 29.5t-29.5 70.5zM1000 1304q0 41 29.5 70.5t70.5 29.5t70.5 -29.5t29.5 -70.5t-29.5 -70.5t-70.5 -29.5t-70.5 29.5t-29.5 70.5zM1200 704q0 41 29.5 70.5 t70.5 29.5t70.5 -29.5t29.5 -70.5t-29.5 -70.5t-70.5 -29.5t-70.5 29.5t-29.5 70.5zM1200 1104q0 41 29.5 70.5t70.5 29.5t70.5 -29.5t29.5 -70.5t-29.5 -70.5t-70.5 -29.5t-70.5 29.5t-29.5 70.5zM1400 704q0 41 29.5 70.5t70.5 29.5t70.5 -29.5t29.5 -70.5t-29.5 -70.5 t-70.5 -29.5t-70.5 29.5t-29.5 70.5zM1400 904q0 41 29.5 70.5t70.5 29.5t70.5 -29.5t29.5 -70.5t-29.5 -70.5t-70.5 -29.5t-70.5 29.5t-29.5 70.5zM1600 704q0 41 29.5 70.5t70.5 29.5t70.5 -29.5t29.5 -70.5t-29.5 -70.5t-70.5 -29.5t-70.5 29.5t-29.5 70.5z" />
<glyph unicode="A" d="M0 300l800 800l800 -800h-300v-300h-500h-500v300h-300z" />
<glyph unicode="B" d="M0 400l800 800l800 -800h-400v-400h-400h-400v400h-400z" />
<glyph unicode="C" d="M0 400l800 800l800 -800h-500v-400h-300h-300v400h-500z" />
<glyph unicode="D" d="M0 1200l800 800l800 -800h-1600zM500 0v300h600v-300h-600zM500 400v300h600v-300h-600zM500 800v300h600v-300h-600z" />
<glyph unicode="E" d="M0 800l800 800l800 -800h-400v-300h-800v300h-400zM400 0v300h800v-300h-800z" />
<glyph unicode="F" d="M0 600l800 800l800 -800h-500v-200h-600v200h-500zM500 0v300h600v-300h-600z" />
<glyph unicode="G" d="M0 900l800 800l800 -800h-1600zM500 0v100h600v-100h-600zM500 200v200h600v-200h-600zM500 500v300h600v-300h-600z" />
<glyph unicode="H" d="M0 0v300h1600v-300h-1600zM0 1200h1600l-800 -800z" />
<glyph unicode="I" d="M0 0v300h1600v-300h-1600zM0 500l800 800l800 -800h-1600z" />
<glyph unicode="J" d="M0 0l800 1300l800 -1300h-1600z" />
<glyph unicode="K" d="M0 718v700h200v-700h1v-23q0 -176 116 -315q133 -158 339 -176q25 -2 48 -2q176 0 316 117q158 132 176 338q3 31 2 62q-98 -1 -215 -43l317 477l323 -462q-112 26 -221 32v-16q0 -33 -3 -68q-25 -289 -247 -475q-197 -164 -444 -164q-34 0 -68 3q-288 25 -475 247 q-164 196 -164 445v23h-1z" />
<glyph unicode="L" d="M0 400l800 800l800 -800h-400v-400h-400h-400v400h-400zM240 500h260v-367h600v367h250l-550 550z" />
<glyph unicode="M" horiz-adv-x="1798" d="M0 400l800 800l800 -800h-500v-400h-300h-300v400h-500zM240 500h360v-367h400v367h350l-550 550z" />
<glyph unicode="N" d="M0 800l800 800l800 -800h-400v-400h-400h-400v400h-400zM240 900h260v-367h600v367h250l-550 550zM400 0v300h800v-300h-800zM500 100h600v100h-600v-100z" />
<glyph unicode="O" horiz-adv-x="1000" d="M0 400h300v400h-300l400 400l400 -400h-300v-400h300l-400 -400z" />
<glyph unicode="P" horiz-adv-x="1000" d="M0 400h250v550h-250l400 400l400 -400h-250v-550h250l-400 -400z" />
<glyph unicode="Q" horiz-adv-x="2000" d="M0 900l400 400v-250h350v350h-250l400 400l400 -400h-250v-350h350v250l400 -400l-400 -400v250h-350v-350h250l-400 -400l-400 400h250v350h-350v-250z" />
<glyph unicode="R" horiz-adv-x="2200" d="M0 1000l400 400v-250h450v450h-250l400 400l400 -400h-250v-450h450v250l400 -400l-400 -400v250h-450v-450h250l-400 -400l-400 400h250v450h-450v-250z" />
<glyph unicode="S" horiz-adv-x="800" d="M0 450h188v900h-188l300 450l300 -450h-187v-900h187l-300 -450z" />
<glyph unicode="T" d="M0 400l800 800l800 -800h-400l-100 -400h-300h-300l-100 400h-400z" />
<glyph unicode="U" d="M0 400l800 800l800 -800h-400l-100 -400h-300h-300l-100 400h-400zM261 500h239l100 -400h400l100 400h239l-539 542z" />
<glyph unicode="V" d="M0 500l800 800l800 -800l-500 100v-600h-300h-300v600z" />
<glyph unicode="W" d="M0 500l800 800l800 -800l-500 100v-600h-300h-300v600zM300 653l300 47v-600h400v635l271 -64l-471 467z" />
<glyph unicode="X" d="M0 500l800 800l800 -800l-500 100l-100 -600h-200h-200l-100 600z" />
<glyph unicode="Y" d="M0 500l800 800l800 -800l-500 100l-100 -600h-200h-200l-100 600zM344 668l256 65l100 -633h200l100 635l271 -64l-471 467z" />
<glyph unicode="Z" d="M0 300l800 800l800 -800l-500 100l-100 -400h-200h-200l-100 400z" />
<glyph unicode="[" d="M0 300l800 800l800 -800l-500 100l-100 -400h-200h-200l-100 400zM300 453l300 47l100 -400h200l100 435l271 -64l-471 467z" />
<glyph unicode="\" horiz-adv-x="1600" d="M0 700q0 290 205 495t495 205t495 -205t205 -495t-205 -495t-495 -205t-495 205t-205 495zM100 700q0 -249 175.5 -424.5t424.5 -175.5t424.5 175.5t175.5 424.5t-175.5 424.5t-424.5 175.5t-424.5 -175.5t-175.5 -424.5zM300 700l400 400l400 -400h-250v-400h-150h-150 v400h-250z" />
<glyph unicode="]" horiz-adv-x="1000" d="M0 400l400 400l400 -400h-250v-400h-150h-150v400h-250z" />
<glyph unicode="^" horiz-adv-x="1600" d="M0 700q0 290 205 495t495 205t495 -205t205 -495t-205 -495t-495 -205t-495 205t-205 495zM100 700q0 -249 176 -424q11 -12 23 -23l251 323v124h-250l400 400l145 -145l189 245q-146 100 -334 100q-249 0 -424.5 -175.5t-175.5 -424.5zM365 201q147 -101 335 -101 q249 0 424.5 175.5t175.5 424.5t-175 425q-11 10 -22 21l-197 -252l194 -194h-250v-400h-300v137z" />
<glyph unicode="_" horiz-adv-x="1700" d="M0 1100l450 600l450 -600h-300v-500q0 -300 300 -300t300 300v700h300v-700q0 -600 -600 -600t-600 600v500h-300z" />
<glyph unicode="`" horiz-adv-x="1355" d="M0 0v150q374 0 608 246q169 177 246 359q-98 20 -195 -5l333 300l156 -450q-87 73 -172 114q-66 -207 -260 -414q-281 -300 -716 -300z" />
<glyph unicode="a" horiz-adv-x="1754" d="M0 1165q57 -49 114 -76q44 138 174 276q187 200 477 200v-100q-249 0 -405 -164q-113 -118 -164 -240q28 -5 56 -5l74 9l-222 -200zM52 765h100q0 -249 164 -406q117 -112 239 -164q6 30 6 59q0 36 -9 72l200 -222l-300 -104q48 57 76 114q-138 44 -276 173 q-200 188 -200 478zM800 65v100q249 0 406 164q112 118 163 240q-28 5 -56 5l-74 -9l222 200l104 -300q-57 49 -114 76q-44 -138 -173 -276q-188 -200 -478 -200zM800 1526l300 104q-49 -58 -77 -115q138 -44 277 -173q200 -187 200 -477h-100q0 249 -164 405 q-118 112 -240 164q-6 -29 -6 -57q0 -37 10 -73z" />
<glyph unicode="b" horiz-adv-x="1100" d="M0 0v100q249 0 424.5 175.5t175.5 424.5q0 131 -49 242q-88 -51 -151 -142v459l471 -259q-34 3 -66 3q-87 0 -161 -22q56 -129 56 -281q0 -290 -205 -495t-495 -205z" />
<glyph unicode="c" horiz-adv-x="1200" d="M12 692q38 140 164 213q65 38 135 45q-12 52 -48 104l230 -139l-199 -115q24 50 23 101q-60 -7 -116 -40q-108 -62 -140 -182q-11 -41 -11 -80q0 -76 41 -147l-43 -25q-48 83 -48 172q-1 45 12 93zM134 104l6 268l199 -114q-56 -5 -100 -31q36 -48 93 -81q71 -41 147 -41 q39 0 81 11q120 32 182 140l43 -25q-73 -125 -213 -163q-48 -13 -93 -13q-89 0 -172 48q-66 38 -108 94q-38 -36 -65 -93zM598 908v50q145 0 247.5 -102.5t102.5 -247.5q0 -76 -28 -140q38 -11 83 -11q15 0 31 1l-236 -129v229q32 -45 76 -71q24 56 24 121 q0 125 -87.5 212.5t-212.5 87.5z" />
<glyph unicode="d" horiz-adv-x="1600" d="M0 0l700 700l700 -700l-700 100z" />
<glyph unicode="e" horiz-adv-x="1600" d="M0 400l700 700l700 -700l-700 100zM400 332l100 -332h400l100 338l-300 62z" />
<glyph unicode="f" horiz-adv-x="1600" d="M0 200l700 700l700 -700q-250 107 -500 138v-338h-400v338q-250 -31 -500 -138z" />
<glyph unicode="g" horiz-adv-x="1600" d="M0 700l700 700l700 -700q-250 107 -500 138v-238h-400v238q-250 -31 -500 -138zM500 0v200h400v-200h-400zM500 300v200h400v-200h-400z" />
<glyph unicode="h" horiz-adv-x="1600" d="M0 200l700 700l700 -700q-250 107 -500 138v-338h-400v338q-250 -31 -500 -138zM343 400q151 68 249 68h8v-368h200v371q147 -12 273 -71l-373 356z" />
<glyph unicode="i" horiz-adv-x="1400" d="M0 400l600 900l600 -900h-400v-400h-400v400h-400z" />
<glyph unicode="j" horiz-adv-x="1400" d="M0 400l600 900l600 -900h-400v-400h-400v400h-400zM200 500h300v-400h200v400h300l-400 600z" />
<glyph unicode="k" horiz-adv-x="1400" d="M0 800l600 900l600 -900h-400v-200h-400v200h-400zM400 0v200h400v-200h-400zM400 300v200h400v-200h-400z" />
<glyph unicode="l" horiz-adv-x="1400" d="M0 800l600 900l600 -900h-400v-800h-400v800h-400z" />
<glyph unicode="m" horiz-adv-x="1400" d="M0 700l600 900l600 -900h-400v-300h-400v300h-400zM400 0v300h400v-300h-400z" />
<glyph unicode="n" horiz-adv-x="1400" d="M0 700l600 900l600 -900h-400v-300h-400v300h-400zM200 800h300v-300h200v300h300l-400 600zM400 0v300h400v-300h-400zM500 100h200v100h-200v-100z" />
<glyph unicode="o" horiz-adv-x="1656" d="M0 1300l300 450l300 -450h-200v-534q83 34 200 34h400v200l449 -300l-449 -300v200h-400q-200 0 -200 -199v-401h-200v1300h-200z" />
<glyph unicode="p" horiz-adv-x="1249" d="M0 0v400q0 400 400 400h200v200l449 -300l-449 -300v200h-200q-200 0 -200 -200v-400h-200z" />
<glyph unicode="q" horiz-adv-x="2500" d="M0 700l449 300v-200h400q117 0 200 -34v534h-200l300 450l300 -450h-200v-534q83 34 200 34h400v200l449 -300l-449 -300v200h-400q-200 0 -200 -200v-400h-200v400q0 200 -200 200h-400v-200z" />
<glyph unicode="r" horiz-adv-x="1334" d="M0 512v100h300v100l225 -150l-225 -150v100h-300zM413 300l150 225l150 -225h-100v-300h-100v300h-100zM413 825h100v300h100v-300h100l-150 -225zM600 562l225 150v-100h300v-100h-300v-100z" />
<glyph unicode="s" horiz-adv-x="500" d="M0 300l150 225l150 -225h-100v-300h-100v300h-100zM0 825h100v300h100v-300h100l-150 -225z" />
<glyph unicode="t" horiz-adv-x="1707" d="M0 800l500 700l500 -700h-300v-200q0 -300 300 -300t300 300h200q0 -600 -500 -600q-700 0 -700 600v200h-300z" />
<glyph unicode="u" horiz-adv-x="1400" d="M0 900l400 600l400 -600h-300v-500q0 -200 200 -200h100q200 0 200 200v500h200v-500q0 -400 -400 -400h-100q-400 0 -400 400v500h-300z" />
<glyph unicode="v" horiz-adv-x="1600" d="M0 1200l400 600l400 -600h-300v-800q0 -200 200 -200h300q200 0 200 200v200q0 200 -200 200h-300v200h300q400 0 400 -400v-200q0 -400 -400 -400h-300q-400 0 -400 400v800h-300z" />
<glyph unicode="w" horiz-adv-x="2100" d="M0 800v200h600v-200h-600zM500 1300l400 600l400 -600h-300v-900q0 -200 200 -200h300q200 0 200 200v200q0 200 -200 200h-300v200h300q400 0 400 -400v-200q0 -400 -400 -400h-300q-400 0 -400 400v900h-300z" />
<glyph unicode="x" horiz-adv-x="1200" d="M0 200h300v-200h400v200h300l-500 500zM0 800v200h1000v-200h-1000zM0 1100v100h1000v-100h-1000z" />
<glyph unicode="y" horiz-adv-x="1200" d="M0 500h300v400h-300v200h300v400h-300l500 500l500 -500h-300v-400h300v-200h-300v-400h300l-500 -500z" />
<glyph unicode="z" d="M0 0q600 600 700 1100q-100 0 -400 -100l500 731l500 -731q-300 100 -400 100q100 -500 700 -1100q-448 203 -736 203q-33 0 -64 -3q-39 5 -81 5q-284 0 -719 -205z" />
<glyph unicode="{" horiz-adv-x="600" d="M0 400l200 500l200 -500h-147l47 -400h-200l50 400h-150z" />
<glyph unicode="|" horiz-adv-x="1000" d="M0 800l400 1000l400 -1000q-200 100 -300 100q0 -500 200 -900h-600q200 400 200 900q-100 0 -300 -100z" />
<glyph unicode="}" horiz-adv-x="1000" d="M0 700l400 700l400 -700q-200 100 -300 100q0 -400 200 -800q-300 200 -600 0q200 400 200 800q-100 0 -300 -100z" />
<glyph unicode="&#xa1;" d="M0 0l800 1000l800 -1000l-800 500z" />
<glyph unicode="&#xa2;" d="M0 100l800 1000l800 -1000l-800 500zM500 0h600v300l-300 200l-300 -200v-300z" />
<glyph unicode="&#xa3;" horiz-adv-x="1700" d="M0 950q0 62 44 106t106 44t106 -44t44 -106t-44 -106t-106 -44t-106 44t-44 106zM300 1250q0 62 44 106t106 44t106 -44t44 -106t-44 -106t-106 -44t-106 44t-44 106zM600 150q0 62 44 106t106 44t106 -44t44 -106t-44 -106t-106 -44t-106 44t-44 106zM600 550 q0 62 44 106t106 44t106 -44t44 -106t-44 -106t-106 -44t-106 44t-44 106zM600 950q0 62 44 106t106 44t106 -44t44 -106t-44 -106t-106 -44t-106 44t-44 106zM600 1550q0 62 44 106t106 44t106 -44t44 -106t-44 -106t-106 -44t-106 44t-44 106zM900 1250q0 62 44 106 t106 44t106 -44t44 -106t-44 -106t-106 -44t-106 44t-44 106zM1200 950q0 62 44 106t106 44t106 -44t44 -106t-44 -106t-106 -44t-106 44t-44 106z" />
<glyph unicode="&#xa4;" horiz-adv-x="1428" d="M35 471q-71 71 0 141l495 495q30 31 61 35q46 15 93 -32l495 -495q71 -70 0 -141t-141 0l-331 331v-705q0 -100 -100 -100t-100 100v702l-331 -331q-71 -71 -141 0zM605 900h7l-3 4z" />
<glyph unicode="&#xa5;" horiz-adv-x="1400" d="M28 671q-71 71 0 141l495 495q30 31 61 35q46 15 93 -32l495 -495q71 -70 0 -141t-141 0l-331 331v-905q0 -100 -100 -100t-100 100v902l-331 -331q-71 -71 -141 0zM598 1100h7l-3 4z" />
<glyph unicode="&#xa6;" horiz-adv-x="1400" d="M28 671q-71 71 0 141l495 495q30 31 61 35q46 15 93 -32l495 -495q71 -70 0 -141t-141 0l-429 430l-433 -433q-71 -71 -141 0z" />
<glyph unicode="&#xa7;" horiz-adv-x="1400" d="M28 671q-71 71 0 141l495 495q30 31 61 35q46 15 93 -32l495 -495q71 -70 0 -141t-141 0l-429 430l-433 -433q-71 -71 -141 0zM36 136q-71 71 0 141l495 495q30 31 61 35q46 15 93 -32l495 -495q71 -70 0 -141t-141 0l-429 430l-433 -433q-71 -71 -141 0z" />
<glyph unicode="&#xa8;" horiz-adv-x="1400" d="M0 400l600 700l600 -700h-400l100 -400h-600l100 400h-400z" />
<glyph unicode="&#xa9;" horiz-adv-x="1400" d="M35 871q-71 71 0 141l495 495q30 31 61 35q46 15 93 -32l495 -495q71 -70 0 -141t-141 0l-429 430l-433 -433q-71 -71 -141 0zM507 100v900q0 100 100 100t100 -100v-900q0 -100 -100 -100t-100 100z" />
<glyph unicode="&#xaa;" horiz-adv-x="1400" d="M0 0l600 900l600 -900h-1200zM300 150h600l-300 450z" />
<glyph unicode="&#xab;" horiz-adv-x="1472" d="M53 696q-106 106 0 212l487 499q106 106 212 0l475 -515q107 -106 0 -212q-105 -106 -212 0l-221 234l-2 -764q0 -150 -150 -150t-150 150l2 780l-229 -234q-106 -106 -212 0z" />
<glyph unicode="&#xac;" horiz-adv-x="1400" d="M0 600q0 249 175.5 424.5t424.5 175.5t424.5 -175.5t175.5 -424.5t-175.5 -424.5t-424.5 -175.5t-424.5 175.5t-175.5 424.5zM318 538l248 -247q15 -16 30 -18q23 -7 47 16l247 248q36 35 0 70q-35 36 -70 0l-166 -165v452q0 50 -50 50t-50 -50v-451l-165 166 q-36 35 -71 0q-35 -36 0 -71zM599 686h4l-2 2z" />
<glyph unicode="&#xad;" horiz-adv-x="1600" d="M0 700q0 290 205 495t495 205t495 -205q130 -130 178 -295q-120 130 -273 200q-200 129 -401 100q-207 0 -353 -146t-146 -352q0 -207 146 -353t353 -146q206 0 352 146q22 22 41 46q-90 60 -192 105l500 200v-600q-69 92 -149 167q-26 -32 -56 -62q-205 -205 -495 -205 t-495 205t-205 495z" />
<glyph unicode="&#xae;" horiz-adv-x="1400" d="M0 600q0 249 175.5 424.5t424.5 175.5t424.5 -175.5t175.5 -424.5t-175.5 -424.5t-424.5 -175.5t-424.5 175.5t-175.5 424.5zM318 638l248 -247q15 -16 30 -18q23 -7 47 16l247 248q36 35 0 70q-35 36 -70 0l-166 -165v452q0 50 -50 50t-50 -50v-451l-165 166 q-36 35 -71 0q-35 -36 0 -71zM350 250q0 -50 50 -50h401q50 0 50 50t-50 50h-401q-50 0 -50 -50zM599 686h4l-2 2z" />
<glyph unicode="&#xaf;" horiz-adv-x="1700" d="M51 106q-71 70 0 141l636 636q71 71 142 0l636 -636q71 -71 0 -141l-71 -71q-70 -71 -141 0l-424 424q-71 71 -142 0l-424 -424q-71 -71 -142 0z" />
<glyph unicode="&#xb0;" horiz-adv-x="1700" d="M51 106q-71 70 0 141l636 636q71 71 142 0l636 -636q71 -71 0 -141l-71 -71q-70 -71 -141 0l-424 424q-71 71 -142 0l-424 -424q-71 -71 -142 0zM158 140q34 -34 74 5l384 385q142 141 283 0l385 -385q40 -39 76 -3q34 34 -5 74l-564 563q-33 34 -73 -6l-557 -557 q-40 -40 -3 -76z" />
<glyph unicode="&#xb1;" horiz-adv-x="1349" d="M0 0v600q300 -100 500 0q277 173 354 355q-98 20 -195 -5l333 300l156 -450q-87 73 -172 114q-43 -214 -238 -514q-238 -300 -738 -400z" />
<glyph unicode="&#x2000;" horiz-adv-x="1000" />
<glyph unicode="&#x2001;" horiz-adv-x="2000" />
<glyph unicode="&#x2002;" horiz-adv-x="1000" />
<glyph unicode="&#x2003;" horiz-adv-x="2000" />
<glyph unicode="&#x2004;" horiz-adv-x="666" />
<glyph unicode="&#x2005;" horiz-adv-x="500" />
<glyph unicode="&#x2006;" horiz-adv-x="333" />
<glyph unicode="&#x2007;" horiz-adv-x="333" />
<glyph unicode="&#x2008;" horiz-adv-x="250" />
<glyph unicode="&#x2009;" horiz-adv-x="400" />
<glyph unicode="&#x200a;" horiz-adv-x="111" />
<glyph unicode="&#x2010;" horiz-adv-x="1600" d="M0 700q0 290 205 495t495 205t495 -205q130 -130 178 -295q-120 130 -273 200q-200 129 -401 100q-207 0 -353 -146t-146 -352q0 -207 146 -353t353 -146q206 0 352 146q22 22 41 46q-90 60 -192 105l500 200v-600q-69 92 -149 167q-26 -32 -56 -62q-205 -205 -495 -205 t-495 205t-205 495z" />
<glyph unicode="&#x2011;" horiz-adv-x="1600" d="M0 700q0 290 205 495t495 205t495 -205q130 -130 178 -295q-120 130 -273 200q-200 129 -401 100q-207 0 -353 -146t-146 -352q0 -207 146 -353t353 -146q206 0 352 146q22 22 41 46q-90 60 -192 105l500 200v-600q-69 92 -149 167q-26 -32 -56 -62q-205 -205 -495 -205 t-495 205t-205 495z" />
<glyph unicode="&#x2012;" horiz-adv-x="1600" d="M0 700q0 290 205 495t495 205t495 -205q130 -130 178 -295q-120 130 -273 200q-200 129 -401 100q-207 0 -353 -146t-146 -352q0 -207 146 -353t353 -146q206 0 352 146q22 22 41 46q-90 60 -192 105l500 200v-600q-69 92 -149 167q-26 -32 -56 -62q-205 -205 -495 -205 t-495 205t-205 495z" />
<glyph unicode="&#x2013;" horiz-adv-x="1224" d="M0 700q0 290 150 495t362 205t362 -205q95 -130 130 -295q-88 130 -199 200q-147 129 -294 100q-151 0 -258 -146t-107 -352q0 -207 107 -353t258 -146t258 146q16 22 30 46q-66 60 -141 105l366 200v-600q-50 92 -109 167q-19 -32 -41 -62q-150 -205 -362 -205t-362 205 t-150 495z" />
<glyph unicode="&#x2014;" horiz-adv-x="2248" d="M0 700q0 290 300 495t724 205t724 -205q190 -130 261 -295q-176 130 -400 200q-292 129 -586 100q-303 0 -516.5 -146t-213.5 -352q0 -207 213.5 -353t516.5 -146q301 0 514 146q33 22 60 46q-131 60 -280 105l731 200v-600q-101 92 -218 167q-38 -32 -82 -62 q-300 -205 -724 -205t-724 205t-300 495z" />
<glyph unicode="&#x202f;" horiz-adv-x="400" />
<glyph unicode="&#x205f;" horiz-adv-x="500" />
<glyph unicode="&#x25fc;" horiz-adv-x="1200" d="M0 0v1200h1200v-1200h-1200z" />
</font>
</defs>
</svg>
